<svg width="465" height="141" viewBox="0 0 465 141" fill="none" xmlns="http://www.w3.org/2000/svg">
<path fill-rule="evenodd" clip-rule="evenodd" d="M0 123.073C62.9875 106.635 122.28 106.48 177.365 121.761C118.601 112.746 59.2005 112.704 0 123.073V123.073Z" fill="#EBECEC"/>
<path fill-rule="evenodd" clip-rule="evenodd" d="M16.0938 108.219L42.122 90.5406L73.9162 106.733L119.876 76.4964L158.095 113.341L162.377 112.68L119.383 69.8878L72.7625 90.87L41.7925 85.0885L16.0938 108.219Z" fill="#FEFEFE"/>
<path fill-rule="evenodd" clip-rule="evenodd" d="M40.476 25.1136L59.256 0V84.8411L40.8055 81.4537L40.476 25.1136Z" fill="#EBECEC"/>
<path d="M56.5363 23.9507H49.6997V26.512H56.5363V23.9507Z" fill="#2B2A29"/>
<path d="M56.5363 31.2627H49.6997V33.824H56.5363V31.2627Z" fill="#2B2A29"/>
<path d="M56.5363 38.2848H49.6997V40.8461H56.5363V38.2848Z" fill="#2B2A29"/>
<path d="M56.5363 45.6374H49.6997V48.1987H56.5363V45.6374Z" fill="#2B2A29"/>
<path fill-rule="evenodd" clip-rule="evenodd" d="M64.6905 24.6163L84.7877 37.6692L84.952 80.7931L72.9264 86.4095L64.278 85.2539L64.6905 24.6163Z" fill="#EBECEC"/>
<path d="M82.975 40.5571H78.3628V44.8526H82.975V40.5571Z" fill="#2B2A29"/>
<path d="M82.975 47.7434H78.3628V52.039H82.975V47.7434Z" fill="#2B2A29"/>
<path d="M82.975 54.6836H78.3628V58.9792H82.975V54.6836Z" fill="#2B2A29"/>
<path d="M82.975 61.7877H78.3628V66.0833H82.975V61.7877Z" fill="#2B2A29"/>
<path d="M82.975 68.6447H78.3628V72.9403H82.975V68.6447Z" fill="#2B2A29"/>
<path d="M82.975 75.5024H78.3628V79.798H82.975V75.5024Z" fill="#2B2A29"/>
<path fill-rule="evenodd" clip-rule="evenodd" d="M89.0707 8.75476L109.992 0.327881L110.157 68.7306L88.9064 78.3139L89.0707 8.75476Z" fill="#EBECEC"/>
<path d="M102.744 10.9025H100.273V68.7305H102.744V10.9025Z" fill="#2B2A29"/>
<path d="M107.191 8.42432H105.215V66.9141H107.191V8.42432Z" fill="#2B2A29"/>
<path fill-rule="evenodd" clip-rule="evenodd" d="M113.781 28.2511L133.055 15.5295V77.8183L120.7 64.6002L113.945 68.4002L113.781 28.2511Z" fill="#EBECEC"/>
<path d="M130.748 31.3872H116.581V34.2789H130.748V31.3872Z" fill="#2B2A29"/>
<path d="M130.748 36.797H116.581V39.6887H130.748V36.797Z" fill="#2B2A29"/>
<path d="M130.748 42.2499H116.581V45.1417H130.748V42.2499Z" fill="#2B2A29"/>
<path fill-rule="evenodd" clip-rule="evenodd" d="M36.8202 105.583L39.8983 105.657V110.201H36.799L36.8202 105.583Z" fill="#EBECEC" stroke="#2B2A29" stroke-width="0.703317" stroke-miterlimit="22.9256"/>
<path fill-rule="evenodd" clip-rule="evenodd" d="M112.589 101.442L117.491 101.559V108.796H112.556L112.589 101.442Z" fill="#EBECEC" stroke="#2B2A29" stroke-width="0.703317" stroke-miterlimit="22.9256"/>
<path fill-rule="evenodd" clip-rule="evenodd" d="M42.0905 105.458L45.1687 105.532V110.077H42.0702L42.0905 105.458Z" fill="#EBECEC" stroke="#2B2A29" stroke-width="0.703317" stroke-miterlimit="22.9256"/>
<path fill-rule="evenodd" clip-rule="evenodd" d="M120.982 101.243L125.885 101.36V108.596H120.95L120.982 101.243Z" fill="#EBECEC" stroke="#2B2A29" stroke-width="0.703317" stroke-miterlimit="22.9256"/>
<path fill-rule="evenodd" clip-rule="evenodd" d="M42.0663 98.5495V103.302L46.1025 103.217C45.8902 101.351 44.6959 99.754 42.0663 98.5495V98.5495Z" fill="#EBECEC" stroke="#2B2A29" stroke-width="0.703317" stroke-miterlimit="22.9256"/>
<path fill-rule="evenodd" clip-rule="evenodd" d="M120.943 90.2407V97.8073L127.372 97.6735C127.033 94.7015 125.132 92.1577 120.943 90.2407Z" fill="#EBECEC" stroke="#2B2A29" stroke-width="0.703317" stroke-miterlimit="22.9256"/>
<path fill-rule="evenodd" clip-rule="evenodd" d="M40.1266 98.5495V103.302L36.0903 103.217C36.3026 101.351 37.497 99.754 40.1266 98.5495V98.5495Z" fill="#EBECEC" stroke="#2B2A29" stroke-width="0.703317" stroke-miterlimit="22.9256"/>
<path fill-rule="evenodd" clip-rule="evenodd" d="M117.855 90.2407V97.8073L111.427 97.6735C111.765 94.7015 113.667 92.1577 117.855 90.2407Z" fill="#EBECEC" stroke="#2B2A29" stroke-width="0.703317" stroke-miterlimit="22.9256"/>
<path d="M40.6259 121.877H45.4632L56.3637 135.25V124.969C56.3637 123.874 56.2382 123.188 55.9955 122.918C55.6678 122.551 55.1565 122.366 54.4568 122.366H53.8375V121.877H60.0437V122.366H59.4105C58.6564 122.366 58.1229 122.595 57.8091 123.048C57.6153 123.332 57.5212 123.969 57.5212 124.969V139.994H57.0458L45.2925 125.638V136.619C45.2925 137.714 45.4097 138.396 45.6469 138.67C45.9792 139.038 46.4951 139.222 47.1865 139.222H47.815V139.706H41.6135V139.222H42.2282C42.9906 139.222 43.5296 138.993 43.848 138.535C44.0409 138.257 44.1351 137.615 44.1351 136.619V124.22C43.6191 123.614 43.2241 123.215 42.9592 123.022C42.6897 122.829 42.2992 122.65 41.7833 122.484C41.5276 122.407 41.1418 122.366 40.6259 122.366V121.877V121.877ZM66.0523 122.851V129.897H69.9695C70.9885 129.897 71.666 129.744 72.0075 129.439C72.4653 129.035 72.7163 128.326 72.7699 127.307H73.2544V133.513H72.7699C72.6489 132.647 72.5234 132.091 72.4025 131.844C72.2456 131.539 71.9853 131.297 71.6263 131.122C71.2672 130.946 70.7153 130.857 69.9695 130.857H66.0523V136.735C66.0523 137.525 66.0883 138.005 66.1557 138.176C66.2277 138.347 66.3486 138.482 66.5231 138.584C66.6984 138.683 67.0353 138.733 67.5245 138.733H70.5491C71.5543 138.733 72.2899 138.665 72.7431 138.521C73.2009 138.383 73.6365 138.109 74.0583 137.696C74.6011 137.154 75.1576 136.332 75.7271 135.236H76.2523L74.7174 139.706H60.9768V139.222H61.61C62.0272 139.222 62.4259 139.119 62.8034 138.916C63.0859 138.778 63.2742 138.567 63.3775 138.289C63.4763 138.005 63.5261 137.431 63.5261 136.566V124.983C63.5261 123.852 63.4135 123.156 63.1846 122.891C62.8708 122.542 62.3456 122.366 61.61 122.366H60.9768V121.877H74.7174L74.9149 125.781H74.3989C74.2152 124.844 74.0131 124.202 73.7888 123.852C73.5645 123.502 73.2369 123.233 72.7975 123.048C72.4468 122.918 71.8275 122.851 70.9442 122.851H66.0523V122.851ZM102.074 121.877V122.366C101.611 122.366 101.235 122.448 100.943 122.614C100.656 122.784 100.377 123.094 100.117 123.547C99.9426 123.856 99.6639 124.588 99.2873 125.745L94.3189 140.114H93.7946L89.7288 128.716L85.6945 140.114H85.2182L79.923 125.311C79.528 124.207 79.2769 123.551 79.1736 123.349C78.9991 123.017 78.7564 122.771 78.4555 122.609C78.1555 122.448 77.742 122.366 77.226 122.366V121.877H83.8273V122.366H83.5134C83.0464 122.366 82.692 122.47 82.4455 122.681C82.2028 122.891 82.0773 123.147 82.0773 123.443C82.0773 123.749 82.2702 124.458 82.656 125.562L86.1652 135.564L89.1224 127.061L88.5973 125.562L88.1801 124.364C87.9964 123.923 87.7896 123.538 87.5607 123.205C87.4444 123.04 87.3051 122.901 87.1389 122.783C86.9193 122.627 86.6996 122.515 86.4836 122.443C86.3138 122.393 86.0535 122.366 85.6945 122.366V121.877H92.6363V122.366H92.1609C91.6717 122.366 91.3127 122.47 91.0838 122.681C90.8549 122.891 90.7423 123.174 90.7423 123.533C90.7423 123.982 90.9398 124.763 91.3348 125.876L94.7499 135.564L98.1428 125.745C98.5286 124.655 98.7215 123.906 98.7215 123.484C98.7215 123.282 98.6588 123.094 98.5332 122.918C98.4031 122.744 98.2462 122.618 98.0533 122.551C97.721 122.424 97.2853 122.366 96.7519 122.366V121.877H102.074V121.877ZM107.796 122.851V129.861H111.041C111.785 129.861 112.333 129.695 112.678 129.367C113.024 129.04 113.253 128.389 113.369 127.415H113.854V133.447H113.369C113.36 132.755 113.271 132.248 113.1 131.925C112.93 131.597 112.692 131.355 112.386 131.194C112.086 131.032 111.637 130.951 111.041 130.951H107.796V136.552C107.796 137.453 107.85 138.051 107.966 138.338C108.052 138.557 108.236 138.747 108.518 138.904C108.904 139.114 109.304 139.222 109.725 139.222H110.371V139.706H102.721V139.222H103.348C104.085 139.222 104.623 139.007 104.955 138.576C105.166 138.297 105.269 137.62 105.269 136.552V125.032C105.269 124.13 105.211 123.533 105.098 123.246C105.009 123.026 104.83 122.838 104.56 122.681C104.184 122.47 103.779 122.366 103.348 122.366H102.721V121.877H115.986L116.156 125.795H115.694C115.47 124.965 115.201 124.354 114.9 123.964C114.599 123.574 114.227 123.291 113.782 123.116C113.338 122.941 112.656 122.851 111.727 122.851H107.796V122.851ZM125.57 139.222V139.706H117.928V139.222H118.561C119.297 139.222 119.831 139.007 120.163 138.576C120.374 138.297 120.482 137.62 120.482 136.552V125.032C120.482 124.13 120.424 123.533 120.311 123.246C120.222 123.026 120.042 122.838 119.773 122.681C119.387 122.47 118.983 122.366 118.561 122.366H117.928V121.877H125.57V122.366H124.924C124.198 122.366 123.668 122.582 123.336 123.008C123.116 123.291 123.004 123.964 123.004 125.032V136.552C123.004 137.453 123.063 138.051 123.174 138.338C123.264 138.557 123.448 138.747 123.726 138.904C124.104 139.114 124.502 139.222 124.924 139.222H125.57ZM131.853 122.851V129.897H135.77C136.789 129.897 137.467 129.744 137.808 129.439C138.266 129.035 138.517 128.326 138.571 127.307H139.055V133.513H138.571C138.45 132.647 138.324 132.091 138.203 131.844C138.046 131.539 137.786 131.297 137.427 131.122C137.068 130.946 136.516 130.857 135.77 130.857H131.853V136.735C131.853 137.525 131.889 138.005 131.956 138.176C132.028 138.347 132.149 138.482 132.324 138.584C132.499 138.683 132.836 138.733 133.325 138.733H136.35C137.355 138.733 138.091 138.665 138.544 138.521C139.002 138.383 139.437 138.109 139.859 137.696C140.402 137.154 140.958 136.332 141.528 135.236H142.053L140.518 139.706H126.778V139.222H127.411C127.828 139.222 128.227 139.119 128.604 138.916C128.887 138.778 129.075 138.567 129.178 138.289C129.277 138.005 129.327 137.431 129.327 136.566V124.983C129.327 123.852 129.214 123.156 128.985 122.891C128.672 122.542 128.146 122.366 127.411 122.366H126.778V121.877H140.518L140.716 125.781H140.2C140.016 124.844 139.814 124.202 139.59 123.852C139.365 123.502 139.038 123.233 138.598 123.048C138.248 122.918 137.628 122.851 136.745 122.851H131.853V122.851Z" fill="#FEFEFE"/>
<path d="M200 39H212.618L241.051 73.8818V47.065C241.051 44.2089 240.723 42.4174 240.091 41.7155C239.236 40.7556 237.902 40.2757 236.075 40.2757H234.461V39H250.649V40.2757H248.998C247.032 40.2757 245.639 40.8728 244.82 42.0547C244.316 42.7925 244.07 44.4544 244.07 47.065V86.2538H242.83L212.173 48.8089V77.4516C212.173 80.3078 212.477 82.0868 213.098 82.8012C213.964 83.7611 215.31 84.241 217.113 84.241H218.752V85.505H202.575V84.241H204.179C206.169 84.241 207.573 83.6438 208.404 82.4495C208.908 81.7241 209.154 80.0506 209.154 77.4516V45.1101C207.807 43.5297 206.778 42.4878 206.087 41.9844C205.385 41.481 204.366 41.0128 203.02 40.5798C202.353 40.3812 201.346 40.2757 200 40.2757V39V39ZM266.322 41.5396V59.917H276.541C279.198 59.917 280.965 59.5191 281.855 58.7233C283.049 57.6697 283.704 55.8203 283.845 53.1635H285.109V69.3514H283.845C283.529 67.0925 283.201 65.6409 282.885 64.9976C282.476 64.2012 281.796 63.5695 280.86 63.113C279.924 62.6559 278.484 62.4221 276.541 62.4221H266.322V77.7557C266.322 79.8161 266.416 81.0684 266.591 81.5131C266.779 81.9586 267.094 82.3096 267.551 82.5785C268.007 82.8364 268.885 82.9646 270.162 82.9646H278.051C280.672 82.9646 282.592 82.7895 283.775 82.4151C284.968 82.0517 286.104 81.338 287.205 80.2609C288.621 78.8445 290.072 76.7028 291.558 73.8466H292.928L288.925 85.505H253.083V84.241H254.733C255.822 84.241 256.864 83.9714 257.847 83.4446C258.585 83.0819 259.076 82.5316 259.346 81.8062C259.603 81.0684 259.732 79.5706 259.732 77.311V47.0995C259.732 44.1503 259.439 42.3361 258.842 41.6451C258.023 40.7322 256.653 40.2757 254.733 40.2757H253.083V39H288.925L289.44 49.1833H288.094C287.614 46.7368 287.087 45.0633 286.502 44.1503C285.916 43.2373 285.062 42.5347 283.915 42.0547C283.002 41.7155 281.387 41.5396 279.081 41.5396H266.322V41.5396ZM360.281 39V40.2757C359.075 40.2757 358.091 40.4867 357.331 40.9197C356.581 41.3645 355.856 42.1719 355.177 43.3538C354.72 44.162 353.995 46.07 353.012 49.0896L340.053 86.5703H338.684L328.079 56.8388L317.556 86.5703H316.315L302.503 47.9546C301.473 45.075 300.818 43.3656 300.548 42.8394C300.092 41.9727 299.46 41.3293 298.675 40.908C297.891 40.4867 296.814 40.2757 295.468 40.2757V39H312.687V40.2757H311.867C310.65 40.2757 309.725 40.5446 309.081 41.0949C308.449 41.6451 308.122 42.3126 308.122 43.0849C308.122 43.8807 308.625 45.7301 309.632 48.6096L318.785 74.701L326.499 52.5194L325.129 48.6096L324.041 45.4846C323.561 44.3371 323.023 43.3304 322.426 42.4643C322.121 42.0313 321.758 41.6686 321.325 41.3645C320.751 40.9549 320.178 40.6618 319.616 40.475C319.172 40.346 318.492 40.2757 317.556 40.2757V39H335.664V40.2757H334.423C333.148 40.2757 332.211 40.5446 331.614 41.0949C331.017 41.6451 330.724 42.3823 330.724 43.3187C330.724 44.4895 331.24 46.5265 332.27 49.4295L341.177 74.701L350.026 49.0896C351.033 46.2451 351.537 44.2903 351.537 43.1904C351.537 42.6636 351.372 42.1719 351.045 41.7155C350.706 41.259 350.296 40.9314 349.793 40.7556C348.927 40.4281 347.791 40.2757 346.398 40.2757V39H360.281V39ZM375.205 41.5396V59.8232H383.668C385.61 59.8232 387.038 59.3901 387.94 58.5358C388.841 57.6814 389.438 55.9844 389.743 53.4441H391.007V69.1763H389.743C389.719 67.3731 389.485 66.0505 389.04 65.2079C388.595 64.3536 387.975 63.7212 387.179 63.2999C386.395 62.8786 385.224 62.6676 383.668 62.6676H375.205V77.2758C375.205 79.6286 375.345 81.1856 375.65 81.9351C375.872 82.5081 376.352 82.9998 377.089 83.4094C378.095 83.9597 379.137 84.241 380.238 84.241H381.923V85.505H361.966V84.241H363.604C365.524 84.241 366.929 83.679 367.795 82.555C368.345 81.8296 368.614 80.0623 368.614 77.2758V47.2285C368.614 44.8757 368.462 43.3187 368.169 42.5698C367.936 41.9961 367.467 41.5045 366.765 41.0949C365.781 40.5446 364.728 40.2757 363.604 40.2757H361.966V39H396.567L397.011 49.2185H395.806C395.221 47.0533 394.519 45.4611 393.734 44.4427C392.95 43.4242 391.978 42.687 390.819 42.2306C389.661 41.7741 387.882 41.5396 385.459 41.5396H375.205V41.5396ZM421.569 84.241V85.505H401.635V84.241H403.286C405.205 84.241 406.598 83.679 407.464 82.555C408.015 81.8296 408.295 80.0623 408.295 77.2758V47.2285C408.295 44.8757 408.143 43.3187 407.85 42.5698C407.617 41.9961 407.148 41.5045 406.446 41.0949C405.439 40.5446 404.385 40.2757 403.286 40.2757H401.635V39H421.569V40.2757H419.884C417.988 40.2757 416.606 40.8377 415.74 41.9492C415.167 42.687 414.874 44.4427 414.874 47.2285V77.2758C414.874 79.6286 415.026 81.1856 415.318 81.9351C415.553 82.5081 416.033 82.9998 416.758 83.4094C417.741 83.9597 418.783 84.241 419.884 84.241H421.569ZM437.956 41.5396V59.917H448.175C450.832 59.917 452.6 59.5191 453.489 58.7233C454.683 57.6697 455.339 55.8203 455.479 53.1635H456.743V69.3514H455.479C455.163 67.0925 454.835 65.6409 454.519 64.9976C454.11 64.2012 453.431 63.5695 452.494 63.113C451.558 62.6559 450.118 62.4221 448.175 62.4221H437.956V77.7557C437.956 79.8161 438.05 81.0684 438.225 81.5131C438.413 81.9586 438.729 82.3096 439.185 82.5785C439.642 82.8364 440.519 82.9646 441.796 82.9646H449.685C452.307 82.9646 454.226 82.7895 455.409 82.4151C456.603 82.0517 457.738 81.338 458.839 80.2609C460.255 78.8445 461.706 76.7028 463.193 73.8466H464.562L460.559 85.505H424.718V84.241H426.368C427.457 84.241 428.498 83.9714 429.482 83.4446C430.219 83.0819 430.711 82.5316 430.98 81.8062C431.237 81.0684 431.366 79.5706 431.366 77.311V47.0995C431.366 44.1503 431.073 42.3361 430.477 41.6451C429.657 40.7322 428.287 40.2757 426.368 40.2757H424.718V39H460.559L461.074 49.1833H459.728C459.248 46.7368 458.722 45.0633 458.136 44.1503C457.551 43.2373 456.696 42.5347 455.55 42.0547C454.636 41.7155 453.021 41.5396 450.715 41.5396H437.956V41.5396Z" fill="#FEFEFE"/>
<path d="M215.072 103.322L217.441 103.922C216.945 105.861 216.051 107.343 214.764 108.367C213.474 109.387 211.9 109.895 210.036 109.895C208.108 109.895 206.544 109.503 205.336 108.721C204.13 107.935 203.21 106.798 202.581 105.312C201.953 103.822 201.636 102.224 201.636 100.517C201.636 98.6568 201.99 97.0329 202.702 95.6469C203.413 94.2609 204.425 93.2079 205.74 92.488C207.051 91.7674 208.496 91.4096 210.074 91.4096C211.863 91.4096 213.366 91.8633 214.585 92.7749C215.805 93.6865 216.654 94.9642 217.133 96.6171L214.806 97.1667C214.39 95.8634 213.79 94.9187 212.999 94.3236C212.213 93.7285 211.222 93.4327 210.023 93.4327C208.65 93.4327 207.505 93.7616 206.581 94.4195C205.657 95.0808 205.007 95.9634 204.637 97.075C204.263 98.1817 204.075 99.3263 204.075 100.505C204.075 102.028 204.296 103.352 204.737 104.488C205.183 105.62 205.869 106.469 206.806 107.031C207.742 107.593 208.754 107.872 209.845 107.872C211.168 107.872 212.288 107.489 213.208 106.727C214.128 105.961 214.747 104.825 215.072 103.322V103.322ZM219.255 103.114C219.255 100.717 219.921 98.9395 221.258 97.7866C222.368 96.8295 223.725 96.3461 225.328 96.3461C227.11 96.3461 228.567 96.9288 229.694 98.0989C230.826 99.2643 231.388 100.875 231.388 102.931C231.388 104.6 231.139 105.912 230.64 106.865C230.14 107.822 229.411 108.563 228.459 109.092C227.501 109.62 226.46 109.883 225.328 109.883C223.517 109.883 222.053 109.304 220.933 108.138C219.813 106.977 219.255 105.304 219.255 103.114V103.114ZM221.511 103.114C221.511 104.775 221.873 106.016 222.597 106.84C223.322 107.668 224.234 108.08 225.328 108.08C226.419 108.08 227.326 107.664 228.05 106.836C228.77 106.007 229.132 104.742 229.132 103.044C229.132 101.441 228.77 100.226 228.042 99.4015C227.314 98.5775 226.411 98.1651 225.328 98.1651C224.234 98.1651 223.322 98.5775 222.597 99.3974C221.873 100.217 221.511 101.458 221.511 103.114ZM233.965 109.591V96.6419H235.938V98.4816C236.891 97.0584 238.265 96.3461 240.059 96.3461C240.841 96.3461 241.557 96.4881 242.21 96.7667C242.868 97.0501 243.355 97.4163 243.68 97.8742C244.009 98.3279 244.233 98.8685 244.367 99.4932C244.446 99.9008 244.487 100.613 244.487 101.628V109.591H242.29V101.712C242.29 100.821 242.206 100.151 242.036 99.7056C241.865 99.2643 241.561 98.9106 241.128 98.6478C240.691 98.3817 240.184 98.2486 239.597 98.2486C238.66 98.2486 237.856 98.5485 237.174 99.1395C236.495 99.7346 236.159 100.859 236.159 102.519V109.591H233.965V109.591ZM246.977 105.724L249.145 105.383C249.266 106.253 249.607 106.919 250.165 107.385C250.718 107.847 251.497 108.08 252.5 108.08C253.507 108.08 254.256 107.872 254.744 107.464C255.231 107.052 255.476 106.569 255.476 106.02C255.476 105.52 255.259 105.133 254.826 104.846C254.527 104.65 253.778 104.405 252.583 104.105C250.977 103.697 249.857 103.347 249.236 103.048C248.616 102.752 248.142 102.34 247.821 101.816C247.501 101.292 247.339 100.713 247.339 100.08C247.339 99.5015 247.472 98.9685 247.738 98.4775C248.001 97.9824 248.363 97.5742 248.816 97.2494C249.158 96.9998 249.624 96.7833 250.211 96.6088C250.802 96.4337 251.435 96.3461 252.109 96.3461C253.124 96.3461 254.015 96.4964 254.785 96.7874C255.555 97.0791 256.121 97.4742 256.488 97.9741C256.854 98.4775 257.103 99.1436 257.241 99.98L255.097 100.276C254.997 99.6098 254.714 99.0891 254.248 98.7147C253.782 98.3403 253.12 98.1527 252.267 98.1527C251.259 98.1527 250.539 98.3196 250.111 98.6526C249.678 98.985 249.461 99.3767 249.461 99.8221C249.461 100.109 249.553 100.363 249.732 100.592C249.911 100.83 250.19 101.021 250.573 101.179C250.793 101.258 251.439 101.445 252.512 101.736C254.065 102.153 255.147 102.49 255.759 102.756C256.375 103.019 256.858 103.406 257.207 103.909C257.557 104.413 257.732 105.037 257.732 105.787C257.732 106.519 257.516 107.206 257.091 107.855C256.662 108.5 256.046 109 255.243 109.354C254.44 109.708 253.528 109.883 252.512 109.883C250.826 109.883 249.544 109.532 248.662 108.833C247.78 108.134 247.218 107.098 246.977 105.724V105.724ZM265.133 107.627L265.449 109.566C264.833 109.695 264.28 109.761 263.793 109.761C262.994 109.761 262.377 109.637 261.936 109.383C261.499 109.133 261.191 108.8 261.012 108.388C260.833 107.98 260.741 107.114 260.741 105.799V98.3486H259.131V96.6419H260.741V93.4327L262.927 92.1171V96.6419H265.133V98.3486H262.927V105.92C262.927 106.548 262.964 106.948 263.039 107.127C263.118 107.306 263.243 107.447 263.418 107.555C263.593 107.66 263.842 107.714 264.167 107.714C264.413 107.714 264.733 107.684 265.133 107.627V107.627ZM267.256 109.591V96.6419H269.228V98.6023C269.733 97.6866 270.199 97.0791 270.628 96.7874C271.052 96.4964 271.522 96.3461 272.034 96.3461C272.775 96.3461 273.524 96.5833 274.291 97.0543L273.533 99.0933C273 98.7733 272.463 98.6147 271.926 98.6147C271.443 98.6147 271.014 98.7602 270.632 99.0478C270.248 99.3394 269.978 99.7387 269.816 100.25C269.57 101.029 269.449 101.883 269.449 102.811V109.591H267.256ZM284.084 109.591V107.689C283.073 109.154 281.704 109.883 279.972 109.883C279.21 109.883 278.495 109.737 277.833 109.446C277.171 109.154 276.68 108.784 276.359 108.342C276.034 107.897 275.81 107.356 275.681 106.715C275.593 106.282 275.548 105.599 275.548 104.663V96.6419H277.741V103.822C277.741 104.971 277.787 105.741 277.874 106.141C278.015 106.719 278.307 107.169 278.753 107.502C279.202 107.831 279.756 107.993 280.413 107.993C281.071 107.993 281.687 107.826 282.266 107.489C282.844 107.152 283.252 106.69 283.489 106.112C283.731 105.529 283.851 104.684 283.851 103.581V96.6419H286.045V109.591H284.084V109.591ZM297.937 104.846L300.093 105.129C299.86 106.615 299.257 107.78 298.282 108.622C297.313 109.462 296.118 109.883 294.703 109.883C292.933 109.883 291.506 109.304 290.432 108.146C289.354 106.989 288.813 105.329 288.813 103.164C288.813 101.766 289.046 100.542 289.508 99.4932C289.974 98.4444 290.678 97.6576 291.627 97.1329C292.571 96.6088 293.604 96.3461 294.715 96.3461C296.122 96.3461 297.275 96.7047 298.166 97.4163C299.061 98.1279 299.635 99.1353 299.889 100.446L297.754 100.775C297.55 99.9049 297.192 99.2519 296.676 98.8106C296.16 98.3734 295.535 98.1527 294.803 98.1527C293.695 98.1527 292.796 98.5485 292.105 99.3436C291.414 100.134 291.069 101.387 291.069 103.102C291.069 104.842 291.402 106.107 292.072 106.898C292.738 107.684 293.608 108.08 294.682 108.08C295.543 108.08 296.26 107.813 296.838 107.285C297.417 106.756 297.783 105.945 297.937 104.846V104.846ZM306.765 107.627L307.082 109.566C306.466 109.695 305.912 109.761 305.425 109.761C304.626 109.761 304.01 109.637 303.568 109.383C303.131 109.133 302.824 108.8 302.644 108.388C302.466 107.98 302.374 107.114 302.374 105.799V98.3486H300.763V96.6419H302.374V93.4327L304.559 92.1171V96.6419H306.765V98.3486H304.559V105.92C304.559 106.548 304.596 106.948 304.672 107.127C304.751 107.306 304.876 107.447 305.05 107.555C305.225 107.66 305.475 107.714 305.8 107.714C306.045 107.714 306.366 107.684 306.765 107.627V107.627ZM308.921 94.2402V91.7137H311.12V94.2402H308.921ZM308.921 109.591V96.6419H311.12V109.591H308.921ZM313.641 103.114C313.641 100.717 314.307 98.9395 315.644 97.7866C316.755 96.8295 318.112 96.3461 319.714 96.3461C321.496 96.3461 322.953 96.9288 324.081 98.0989C325.213 99.2643 325.775 100.875 325.775 102.931C325.775 104.6 325.525 105.912 325.026 106.865C324.526 107.822 323.798 108.563 322.845 109.092C321.887 109.62 320.846 109.883 319.714 109.883C317.903 109.883 316.439 109.304 315.319 108.138C314.199 106.977 313.641 105.304 313.641 103.114V103.114ZM315.898 103.114C315.898 104.775 316.26 106.016 316.984 106.84C317.708 107.668 318.62 108.08 319.714 108.08C320.805 108.08 321.713 107.664 322.437 106.836C323.156 106.007 323.519 104.742 323.519 103.044C323.519 101.441 323.157 100.226 322.428 99.4015C321.7 98.5775 320.797 98.1651 319.714 98.1651C318.62 98.1651 317.708 98.5775 316.984 99.3974C316.26 100.217 315.898 101.458 315.898 103.114V103.114ZM328.351 109.591V96.6419H330.324V98.4816C331.277 97.0584 332.651 96.3461 334.445 96.3461C335.227 96.3461 335.944 96.4881 336.597 96.7667C337.254 97.0501 337.741 97.4163 338.066 97.8742C338.395 98.3279 338.62 98.8685 338.753 99.4932C338.832 99.9008 338.874 100.613 338.874 101.628V109.591H336.676V101.712C336.676 100.821 336.592 100.151 336.422 99.7056C336.251 99.2643 335.948 98.9106 335.515 98.6478C335.078 98.3817 334.57 98.2486 333.983 98.2486C333.046 98.2486 332.243 98.5485 331.56 99.1395C330.882 99.7346 330.545 100.859 330.545 102.519V109.591H328.351ZM341.363 105.724L343.531 105.383C343.652 106.253 343.993 106.919 344.551 107.385C345.104 107.847 345.883 108.08 346.886 108.08C347.894 108.08 348.642 107.872 349.13 107.464C349.617 107.052 349.862 106.569 349.862 106.02C349.862 105.52 349.646 105.133 349.213 104.846C348.913 104.65 348.164 104.405 346.97 104.105C345.363 103.697 344.243 103.347 343.622 103.048C343.003 102.752 342.528 102.34 342.208 101.816C341.887 101.292 341.725 100.713 341.725 100.08C341.725 99.5015 341.858 98.9685 342.124 98.4775C342.387 97.9824 342.749 97.5742 343.203 97.2494C343.544 96.9998 344.01 96.7833 344.597 96.6088C345.188 96.4337 345.821 96.3461 346.495 96.3461C347.51 96.3461 348.401 96.4964 349.171 96.7874C349.942 97.0791 350.508 97.4742 350.874 97.9741C351.24 98.4775 351.49 99.1436 351.627 99.98L349.484 100.276C349.384 99.6098 349.1 99.0891 348.634 98.7147C348.168 98.3403 347.506 98.1527 346.653 98.1527C345.646 98.1527 344.926 98.3196 344.497 98.6526C344.064 98.985 343.847 99.3767 343.847 99.8221C343.847 100.109 343.939 100.363 344.118 100.592C344.297 100.83 344.576 101.021 344.959 101.179C345.179 101.258 345.825 101.445 346.899 101.736C348.451 102.153 349.533 102.49 350.145 102.756C350.761 103.019 351.244 103.406 351.594 103.909C351.943 104.413 352.118 105.037 352.118 105.787C352.118 106.519 351.902 107.206 351.477 107.855C351.048 108.5 350.433 109 349.629 109.354C348.826 109.708 347.914 109.883 346.899 109.883C345.213 109.883 343.931 109.532 343.048 108.833C342.166 108.134 341.604 107.098 341.363 105.724V105.724Z" fill="#EBECEC"/>
</svg>
